<?xml version="1.0" encoding="UTF-8"?>
<svg width="270" height="270" viewBox="0 0 270 270" fill="none" xmlns="http://www.w3.org/2000/svg">
  <rect width="270" height="270" fill="#1A4E8C"/>
  <path d="M0 170C0 170 30 150 45 150C60 150 75 170 90 170C105 170 120 150 135 150C150 150 165 170 180 170C195 170 210 150 225 150C240 150 270 170 270 170V270H0V170Z" fill="#2B99D0"/>
  <path d="M0 190C0 190 30 170 45 170C60 170 75 190 90 190C105 190 120 170 135 170C150 170 165 190 180 190C195 190 210 170 225 170C240 170 270 190 270 190V270H0V190Z" fill="#45B8DF"/>
  <path d="M0 210C0 210 30 190 45 190C60 190 75 210 90 210C105 210 120 190 135 190C150 190 165 210 180 210C195 210 210 190 225 190C240 190 270 210 270 210V270H0V210Z" fill="#7CDAF9"/>
  <path d="M150 100L190 170H110L150 100Z" fill="#FFFFFF"/>
  <path d="M100 120L120 170H80L100 120Z" fill="#FFFFFF"/>
  <circle cx="210" cy="50" r="20" fill="#F9D649"/>
</svg> 