<?xml version="1.0" encoding="UTF-8"?>
<svg width="20" height="20" viewBox="0 0 20 20" fill="none" xmlns="http://www.w3.org/2000/svg">
  <path d="M18.125 0H1.875C0.839453 0 0 0.839453 0 1.875V18.125C0 19.1605 0.839453 20 1.875 20H10.7363V12.2598H8.12891V9.23828H10.7363V7.01172C10.7363 4.42773 12.2861 3.02148 14.5723 3.02148C15.668 3.02148 16.6055 3.10352 16.8633 3.14062V5.84375H15.2962C14.0723 5.84375 13.8125 6.42188 13.8125 7.28125V9.23828H16.7715L16.4062 12.2598H13.8125V20H18.125C19.1605 20 20 19.1605 20 18.125V1.875C20 0.839453 19.1605 0 18.125 0Z" fill="#666666"/>
</svg> 