<?xml version="1.0" encoding="UTF-8"?>
<svg width="20" height="20" viewBox="0 0 20 20" fill="none" xmlns="http://www.w3.org/2000/svg">
  <path d="M10 1.8025C12.67 1.8025 12.9867 1.8125 14.0417 1.86C15.0158 1.9042 15.5458 2.0675 15.8983 2.2042C16.3583 2.385 16.6933 2.6025 17.0417 2.95C17.3883 3.2975 17.6067 3.6325 17.7867 4.0925C17.9233 4.445 18.0867 4.975 18.1308 5.9492C18.1783 7.0042 18.1883 7.32 18.1883 9.99C18.1883 12.6608 18.1783 12.9775 18.1308 14.0325C18.0867 15.0067 17.9233 15.5367 17.7867 15.8892C17.6058 16.3492 17.3883 16.6842 17.0417 17.0325C16.6942 17.3792 16.3592 17.5975 15.8983 17.7775C15.5458 17.9142 15.0158 18.0775 14.0417 18.1217C12.9867 18.1692 12.67 18.1792 10 18.1792C7.33 18.1792 7.01333 18.1692 5.95833 18.1217C4.98417 18.0775 4.45417 17.9142 4.10167 17.7775C3.64167 17.5967 3.30667 17.3792 2.95833 17.0325C2.61167 16.685 2.39333 16.35 2.21333 15.8892C2.07667 15.5367 1.91333 15.0067 1.86917 14.0325C1.82167 12.9775 1.81167 12.6608 1.81167 9.99C1.81167 7.32 1.82167 7.0042 1.86917 5.9492C1.91333 4.975 2.07667 4.445 2.21333 4.0925C2.39417 3.6325 2.61167 3.2975 2.95833 2.95C3.30583 2.6033 3.64083 2.385 4.10167 2.2042C4.45417 2.0675 4.98417 1.9042 5.95833 1.86C7.01333 1.8125 7.33 1.8025 10 1.8025ZM10 0C7.28417 0 6.94417 0.01 5.8775 0.06C4.81333 0.11 4.08583 0.2775 3.45 0.525C2.78333 0.78 2.23 1.1225 1.67833 1.6775C1.12333 2.2292 0.78083 2.7825 0.525833 3.45C0.2775 4.0875 0.11 4.8142 0.06 5.8783C0.01 6.945 0 7.285 0 10.0008C0 12.7167 0.01 13.0567 0.06 14.1233C0.11 15.1875 0.2775 15.9142 0.525833 16.5517C0.780833 17.2183 1.12333 17.7725 1.67833 18.3242C2.23 18.8775 2.78333 19.22 3.45 19.4767C4.0875 19.725 4.81417 19.8917 5.8775 19.9417C6.94417 19.9917 7.28417 20.0017 10 20.0017C12.7158 20.0017 13.0558 19.9917 14.1225 19.9417C15.1867 19.8917 15.9133 19.725 16.55 19.4767C17.2167 19.2217 17.7708 18.8775 18.3225 18.3242C18.8758 17.7725 19.2183 17.2183 19.475 16.5517C19.7233 15.9142 19.89 15.1875 19.94 14.1233C19.99 13.0567 20 12.7167 20 10.0008C20 7.285 19.99 6.945 19.94 5.8783C19.89 4.8142 19.7233 4.0875 19.475 3.45C19.22 2.7833 18.8758 2.2292 18.3225 1.6775C17.7708 1.1242 17.2167 0.78 16.55 0.525C15.9125 0.2767 15.1858 0.11 14.1225 0.06C13.0558 0.01 12.7158 0 10 0Z" fill="#666666"/>
  <path d="M10 4.86499C7.16417 4.86499 4.865 7.16416 4.865 9.99999C4.865 12.8358 7.16417 15.135 10 15.135C12.8358 15.135 15.135 12.8358 15.135 9.99999C15.135 7.16416 12.8358 4.86499 10 4.86499ZM10 13.3333C8.15917 13.3333 6.66667 11.8408 6.66667 9.99999C6.66667 8.15916 8.15917 6.66666 10 6.66666C11.8408 6.66666 13.3333 8.15916 13.3333 9.99999C13.3333 11.8408 11.8408 13.3333 10 13.3333Z" fill="#666666"/>
  <path d="M16.5483 4.66168C16.5483 5.32418 16.0108 5.86168 15.3483 5.86168C14.6858 5.86168 14.1483 5.32418 14.1483 4.66168C14.1483 3.99918 14.6858 3.46168 15.3483 3.46168C16.0108 3.46168 16.5483 3.99918 16.5483 4.66168Z" fill="#666666"/>
</svg> 