<svg width="480" height="361" viewBox="0 0 480 361" fill="none" xmlns="http://www.w3.org/2000/svg">
<mask id="mask0_201_503" style="mask-type:alpha" maskUnits="userSpaceOnUse" x="0" y="0" width="480" height="361">
<rect x="479.5" y="0.5" width="360" height="479" transform="rotate(90 479.5 0.5)" fill="url(#paint0_linear_201_503)" stroke="#6246E5"/>
</mask>
<g mask="url(#mask0_201_503)">
<path d="M129.995 461.92C60.6624 461.92 4.45579 405.635 4.45579 336.202C4.45579 266.769 60.6624 210.484 129.995 210.484C199.328 210.484 255.535 266.769 255.535 336.202C255.535 405.635 199.328 461.92 129.995 461.92Z" stroke="#E5E5E5"/>
<path d="M143.263 466.902C65.6865 466.902 2.79748 403.925 2.79748 326.237C2.79748 248.549 65.6865 185.572 143.263 185.572C220.839 185.572 283.728 248.549 283.728 326.237C283.728 403.925 220.839 466.902 143.263 466.902Z" stroke="#E5E5E5"/>
<path d="M154.042 471.885C69.1388 471.885 0.309743 402.959 0.309747 317.934C0.30975 232.909 69.1388 163.983 154.042 163.983C238.946 163.983 307.775 232.909 307.775 317.934C307.775 402.959 238.946 471.885 154.042 471.885Z" stroke="#E5E5E5"/>
<path d="M169.798 475.206C78.4827 475.206 4.4562 401.076 4.4562 309.63C4.4562 218.184 78.4827 144.054 169.798 144.054C261.112 144.054 335.139 218.184 335.139 309.63C335.139 401.076 261.112 475.206 169.798 475.206Z" stroke="#E5E5E5"/>
<path d="M185.138 478.527C87.6404 478.527 8.60204 399.378 8.60204 301.741C8.60205 204.104 87.6404 124.955 185.138 124.955C282.635 124.955 361.673 204.104 361.673 301.741C361.673 399.378 282.635 478.527 185.138 478.527Z" stroke="#E5E5E5"/>
<path d="M202.551 482.68C95.4366 482.68 8.60204 395.723 8.60204 288.456C8.60205 181.188 95.4366 94.2314 202.551 94.2314C309.665 94.2314 396.5 181.188 396.5 288.456C396.5 395.723 309.665 482.68 202.551 482.68Z" stroke="#E5E5E5"/>
</g>
<defs>
<linearGradient id="paint0_linear_201_503" x1="736.035" y1="13.4669" x2="487.704" y2="484.066" gradientUnits="userSpaceOnUse">
<stop stop-color="#747DEF"/>
<stop offset="1" stop-color="#5E3BE1"/>
</linearGradient>
</defs>
</svg>
