<svg width="270" height="290" viewBox="0 0 270 290" fill="none" xmlns="http://www.w3.org/2000/svg">
<rect width="270" height="290" rx="8" fill="#666666" fill-opacity="0.4"/>
<path d="M91.4769 153H86.7729L80.5089 143.544V153H75.8049V136.08H80.5089L86.7729 145.656V136.08H91.4769V153ZM102.269 153.168C100.685 153.168 99.2285 152.8 97.9005 152.064C96.5725 151.312 95.5165 150.28 94.7325 148.968C93.9645 147.64 93.5805 146.144 93.5805 144.48C93.5805 142.816 93.9645 141.328 94.7325 140.016C95.5165 138.688 96.5725 137.656 97.9005 136.92C99.2285 136.184 100.685 135.816 102.269 135.816C103.869 135.816 105.325 136.184 106.637 136.92C107.965 137.656 109.013 138.688 109.781 140.016C110.549 141.328 110.933 142.816 110.933 144.48C110.933 146.144 110.549 147.64 109.781 148.968C109.013 150.28 107.965 151.312 106.637 152.064C105.309 152.8 103.853 153.168 102.269 153.168ZM102.269 148.8C103.469 148.8 104.413 148.408 105.101 147.624C105.805 146.84 106.157 145.792 106.157 144.48C106.157 143.136 105.805 142.08 105.101 141.312C104.413 140.528 103.469 140.136 102.269 140.136C101.053 140.136 100.101 140.528 99.4125 141.312C98.7245 142.08 98.3805 143.136 98.3805 144.48C98.3805 145.808 98.7245 146.864 99.4125 147.648C100.101 148.416 101.053 148.8 102.269 148.8ZM122.345 136.08V153H117.641V136.08H122.345ZM144.776 136.08V153H140.072V143.664L136.88 153H132.944L129.728 143.592V153H125.024V136.08H130.712L134.96 147.072L139.112 136.08H144.776ZM158.157 150.24H152.157L151.245 153H146.301L152.469 136.08H157.893L164.037 153H159.069L158.157 150.24ZM156.981 146.64L155.157 141.168L153.357 146.64H156.981ZM176.371 141.648C176.099 141.2 175.723 140.856 175.243 140.616C174.779 140.376 174.227 140.256 173.587 140.256C172.403 140.256 171.467 140.64 170.779 141.408C170.107 142.176 169.771 143.208 169.771 144.504C169.771 145.96 170.131 147.072 170.851 147.84C171.587 148.592 172.651 148.968 174.043 148.968C175.691 148.968 176.867 148.224 177.571 146.736H172.843V143.352H181.627V147.912C181.259 148.808 180.715 149.648 179.995 150.432C179.291 151.216 178.395 151.864 177.307 152.376C176.219 152.872 174.979 153.12 173.587 153.12C171.891 153.12 170.387 152.76 169.075 152.04C167.779 151.304 166.771 150.288 166.051 148.992C165.347 147.68 164.995 146.184 164.995 144.504C164.995 142.84 165.347 141.36 166.051 140.064C166.771 138.752 167.779 137.736 169.075 137.016C170.371 136.28 171.867 135.912 173.563 135.912C175.691 135.912 177.451 136.424 178.843 137.448C180.235 138.472 181.099 139.872 181.435 141.648H176.371ZM188.439 139.848V142.608H193.839V146.184H188.439V149.232H194.559V153H183.735V136.08H194.559V139.848H188.439Z" fill="#666666"/>
</svg>
